<svg xmlns="http://www.w3.org/2000/svg" direction="ltr" width="243" height="83" viewBox="1004 399 243 83" stroke-linecap="round" stroke-linejoin="round" style="background-color: rgb(33, 37, 41);" encoding="UTF-8&quot;"><defs/><g transform="matrix(1, 0, 0, 1, 1036, 450)" opacity="1"><path d="M1.0442,-2.861 Q3.1409,-4.143 6.2045,-5.5589 T11.9013,-7.7433 16.4177,-8.9108 19.5486,-9.5634 21.9668,-9.9792 24.4794,-10.2115 26.9406,-10.1183 29.1271,-9.6234 31.226,-8.8828 34.0607,-7.9344 37.5406,-6.5444 40.5089,-4.8981 42.7607,-3.4691 45.1695,-2.4807 47.8883,-2.0447 50.2346,-2.4576 52.8859,-3.6293 55.7607,-5.3148 57.8631,-7.124 59.5113,-8.7196 60.9315,-10.047 61.7976,-10.7772 62.428,-11.0681 63.1183,-11.1425 63.7963,-10.9925 64.3908,-10.634 64.8397,-10.1043 65.096,-9.4591 65.1329,-8.7657 64.9464,-8.0969 64.5562,-7.5227 64.003,-7.1031 63.3448,-6.8822 62.6505,-6.8829 61.9928,-7.1054 61.4405,-7.5262 61.0516,-8.1013 60.8666,-8.7705 60.905,-9.4637 61.1627,-10.1084 61.6128,-10.637 62.2082,-10.9943 62.8864,-11.1427 63.5766,-11.0668 64.2063,-10.7745 64.7098,-10.2964 65.0343,-9.6826 65.1457,-8.9973 65.0325,-8.3123 64.7065,-7.6993 64.4935,-7.4197 63.4322,-6.4103 61.2909,-4.6986 58.9729,-2.8744 56.6603,-1.1842 54.1728,-0.0268 51.8502,0.9232 49.0684,1.4121 45.6789,1.1586 43.0379,0.337 41.0599,-0.6899 39.0072,-1.8863 36.6485,-3.0058 34.3695,-4.2207 32.1378,-5.206 30.0965,-5.8921 27.5605,-6.8413 24.7085,-7.317 22.3907,-7.1576 20.1195,-6.8559 17.1569,-6.1948 13.0089,-4.9567 7.8271,-2.7365 3.0407,0.1377 0.7104,1.7202 -0.002,1.8612 -0.7141,1.7187 -1.3175,1.3146 -1.7203,0.7103 -1.8612,-0.0021 -1.7187,-0.7142 -1.3145,-1.3175 -1.0525,-1.579 1.0442,-2.861 Z" fill="#e1e1e1" stroke-linecap="round"/></g><g transform="matrix(1, 0, 0, 1, 1120, 433)" opacity="1"><path d="M-1.1257,2.089 Q-2.2513,2.0411 -3.3352,2.5089 T-5.0386,3.6758 -5.71,5.5068 -4.5731,6.6604 -2.4083,6.7336 -0.3771,6.1641 1.7629,4.8515 3.1718,4.0242 3.8461,3.8632 4.5364,3.9259 5.1706,4.2058 5.6822,4.6735 6.0177,5.2801 6.142,5.9621 6.042,6.648 5.7281,7.2661 5.2334,7.7517 4.6095,8.0538 3.9218,8.1409 3.2423,8.0038 2.6421,7.657 2.1841,7.1367 1.9162,6.4973 1.8665,5.8059 2.0402,5.1348 2.419,4.5543 2.9634,4.1252 3.6163,3.8923 4.3094,3.8801 4.9701,4.0899 5.5293,4.4997 5.9283,5.0665 6.1254,5.7311 6.1,6.4239 5.8547,7.0722 5.4152,7.6083 5.1518,7.8402 4.4661,8.282 2.5435,9.3411 -0.5958,10.5529 -3.8018,11.057 -6.0497,10.8477 -8.0322,10.2286 -9.5836,8.0793 -9.983,4.9454 -9.2966,2.1126 -7.4938,0.0496 -5.3804,-1.0859 -3.3925,-1.7737 -1.1437,-2.089 0.4089,-2.0555 1.1644,-1.7426 1.7426,-1.1643 2.0556,-0.4088 2.0555,0.409 1.7425,1.1645 1.1642,1.7427 0.4087,2.0556 -0.0001,2.1369 -1.1257,2.089 Z" fill="#e1e1e1" stroke-linecap="round"/></g><g transform="matrix(1, 0, 0, 1, 1117, 436)" opacity="1"><path d="M0.9078,-2.1128 Q1.8155,-2.0976 3.6488,-1.7123 T6.2526,-0.3942 7.4551,1.9344 8.0065,5.0857 8.0958,7.1846 7.9271,7.8442 7.5567,8.4154 7.0232,8.8383 6.3827,9.0688 5.702,9.0827 5.0526,8.8785 4.5024,8.4777 4.1089,7.9221 3.9135,7.27 3.9365,6.5896 4.1756,5.9522 4.6056,5.4245 5.1817,5.0617 5.8435,4.9019 6.5216,4.9618 7.1451,5.235 7.6488,5.6931 7.9798,6.2879 8.1035,6.9574 8.007,7.6313 7.7003,8.2391 7.2157,8.7172 6.6037,9.0154 5.9286,9.1027 5.2609,8.9698 4.6706,8.6307 4.2195,8.1208 3.9548,7.4936 3.8739,7.1586 3.7911,6.2702 3.6137,4.3842 2.6673,2.7423 0.9078,2.1128 -0.4072,2.047 -1.1596,1.7354 -1.7354,1.1595 -2.0471,0.4071 -2.047,-0.4073 -1.7353,-1.1597 -1.1594,-1.7355 -0.407,-2.0471 0.0001,-2.128 0.9078,-2.1128 Z" fill="#e1e1e1" stroke-linecap="round"/></g><g transform="matrix(1, 0, 0, 1, 1133, 434)" opacity="1"><path d="M-1.3122,1.8618 Q-1.9289,1.637 -1.7827,2.7896 T-1.4015,5.4821 -0.2481,7.2285 1.9842,7.6127 3.643,7.8956 4.2813,8.2111 4.7855,8.7139 5.1027,9.3513 5.1997,10.0567 5.0664,10.7561 4.7168,11.3764 4.1875,11.8525 3.5338,12.1347 2.8242,12.1934 2.133,12.0224 1.5326,11.6397 1.0858,11.0853 0.8395,10.4173 0.8194,9.7056 1.0275,9.0247 1.4422,8.4459 2.02,8.0298 2.7004,7.8201 3.4122,7.8385 4.0808,8.0833 4.6362,8.5287 5.0204,9.1282 5.193,9.819 5.136,10.5287 4.8553,11.1831 4.3804,11.7136 3.761,12.0646 3.0619,12.1996 2.7016,12.2098 1.847,12.1151 -0.6927,11.5488 -3.334,10.4493 -4.9565,8.4994 -5.8648,5.3364 -5.9069,2.2029 -5.2415,-0.1421 -3.9315,-1.7703 -1.9404,-2.4454 -0.0494,-2.3157 1.0683,-1.8741 1.7042,-1.3226 2.0806,-0.5697 2.1402,0.2699 1.874,1.0684 1.3225,1.7042 0.5696,2.0806 -0.27,2.1402 -0.6956,2.0865 -1.3122,1.8618 Z" fill="#e1e1e1" stroke-linecap="round"/></g><g transform="matrix(1, 0, 0, 1, 1133, 438)" opacity="1"><path d="M1.8591,-1.2078 Q2.5801,-0.7086 3.2528,0.328 T4.2119,2.4349 4.6208,4.534 4.8449,6.663 4.9334,8.08 4.8066,8.6932 4.4907,9.2338 4.0187,9.6452 3.44,9.8844 2.8153,9.9262 2.2099,9.7664 1.6872,9.4217 1.302,8.928 1.0946,8.3373 1.0866,7.7112 1.279,7.1153 1.6516,6.6121 2.1653,6.2542 2.7665,6.0791 3.3921,6.1051 3.9766,6.3295 4.4589,6.7288 4.7885,7.2612 4.9307,7.8709 4.8709,8.4942 4.6151,9.0657 4.1903,9.5257 3.6408,9.8259 3.0243,9.9349 2.4052,9.8414 1.8483,9.555 1.4121,9.1059 1.1421,8.5409 1.0534,8.2366 0.7889,6.3513 0.3338,3.4949 -0.4974,2.1155 -1.4213,1.4243 -1.8582,0.7719 -2.0121,0.002 -1.8597,-0.7681 -1.4242,-1.4214 -0.7718,-1.8582 -0.0019,-2.0121 0.7682,-1.8597 1.1381,-1.7069 1.8591,-1.2078 Z" fill="#e1e1e1" stroke-linecap="round"/></g><g transform="matrix(1, 0, 0, 1, 1143, 432)" opacity="1"><path d="M2.156,0.9078 Q2.1372,1.8155 2.1165,2.7651 T2.1066,5.0944 2.1385,7.5873 3.2749,8.6963 5.235,8.74 6.4309,8.8586 7.0921,9.1083 7.639,9.556 8.0143,10.155 8.1787,10.8424 8.1149,11.5463 7.8298,12.193 7.353,12.7148 6.7346,13.0571 6.0393,13.184 5.3399,13.0822 4.7096,12.7624 4.2144,12.2581 3.9061,11.6221 3.8171,10.9209 3.9566,10.228 4.3101,9.616 4.8405,9.1488 5.4923,8.8755 6.1973,8.8246 6.8816,9.0015 7.4736,9.3876 7.9113,9.9425 8.1489,10.6082 8.1615,11.3149 7.9478,11.9886 7.5302,12.5588 6.9524,12.9658 6.2748,13.167 5.9199,13.2121 5.0741,13.199 2.8876,13.0902 0.1858,12.377 -1.6676,10.23 -2.1385,7.5873 -2.1066,5.0944 -2.1165,2.7651 -2.156,0.9078 -2.092,-0.4161 -1.7735,-1.1851 -1.185,-1.7735 -0.416,-2.092 0.4162,-2.092 1.1851,-1.7734 1.7736,-1.1849 2.092,-0.4159 2.1748,0.0001 2.156,0.9078 Z" fill="#e1e1e1" stroke-linecap="round"/></g><g transform="matrix(1, 0, 0, 1, 1155, 439)" opacity="1"><path d="M0.9944,-2.7397 Q2.9909,-3.8679 5.9108,-5.12 T11.3394,-7.0497 15.6398,-8.0774 18.6197,-8.663 20.9213,-9.05 23.3125,-9.2705 25.6577,-9.1981 27.7447,-8.7654 29.7488,-8.1134 32.452,-7.2775 35.7671,-6.0544 38.6032,-4.6014 40.7623,-3.3322 43.0437,-2.4589 45.6139,-2.0781 47.8391,-2.4459 50.3611,-3.4911 53.0978,-4.9856 55.091,-6.5874 56.6488,-8.0028 57.9899,-9.1813 58.8378,-9.8475 59.4886,-10.1219 60.1929,-10.1741 60.877,-9.9987 61.4693,-9.614 61.9078,-9.0604 62.1465,-8.3957 62.1605,-7.6896 61.9483,-7.0159 61.532,-6.4454 60.9554,-6.0375 60.2788,-5.8352 59.5729,-5.8595 58.9118,-6.1079 58.3646,-6.5545 57.9887,-7.1523 57.8233,-7.839 57.8858,-8.5424 58.1697,-9.1891 58.6452,-9.7113 59.2626,-10.0543 59.9571,-10.1823 60.6562,-10.0817 61.2866,-9.7632 61.7822,-9.2601 62.0913,-8.625 62.1814,-7.9245 62.0431,-7.2319 61.6909,-6.6198 61.4648,-6.3428 60.9262,-5.8604 59.4227,-4.5652 57.3213,-3.0435 55.31,-1.7484 53.1173,-0.6142 50.1599,0.6673 46.7328,1.5151 43.4931,1.2891 40.9585,0.5517 39.0661,-0.3668 37.1267,-1.4321 34.8888,-2.4341 32.723,-3.5184 30.601,-4.3984 28.6552,-5.0163 26.2465,-5.8723 23.5322,-6.3103 21.3231,-6.1824 19.1571,-5.9315 16.3333,-5.3491 12.3838,-4.2379 7.4514,-2.2513 2.8954,0.3205 0.6557,1.7418 -0.0608,1.8602 -0.768,1.6953 -1.3584,1.2723 -1.7419,0.6556 -1.8602,-0.0609 -1.6953,-0.7681 -1.2722,-1.3584 -1.0021,-1.6114 0.9944,-2.7397 Z" fill="#e1e1e1" stroke-linecap="round"/></g></svg>