<?xml version="1.0" encoding="utf-8"?>
<!-- Generator: Adobe Illustrator 22.0.0, SVG Export Plug-In . SVG Version: 6.00 Build 0)  -->
<svg version="1.1" id="Layer_1" xmlns="http://www.w3.org/2000/svg" xmlns:xlink="http://www.w3.org/1999/xlink" x="0px" y="0px"
	 viewBox="0 0 841.9 595.3" style="enable-background:new 0 0 841.9 595.3;" xml:space="preserve">
<style type="text/css">
	.st0{fill:#031329;}
	.st1{fill:#28A49E;}
	.st2{fill:none;stroke:#28A49E;stroke-miterlimit:10;}
	.st3{fill:#FFFFFF;}
	.st4{fill:#EC008C;}
	.st5{fill:#CC3314;}
	.st6{fill:#B8A500;}
	.st7{fill:#E5E6E7;}
</style>
<rect x="0" y="0" class="st0" width="841.9" height="595.3"/>
<g>
	<polygon class="st1" points="352,361.8 187.9,361.8 187.9,431.1 352,431.1 352,595.3 421.3,595.3 421.3,431.1 421.3,361.8 	"/>
	<path class="st1" d="M311.5,477.2c-9.8,13.5-22.8,24.3-38.9,32.2c-16.1,8-34,11.9-53.6,11.9c-23,0-44.9-6.1-65.9-18.3
		c-20.9-12.2-37.6-29.2-50-50.9c-12.4-21.7-18.6-45.8-18.6-72.5c0-26.7,6-50.9,18.1-72.8c12-21.9,28.6-39,49.7-51.4
		c21.1-12.4,44.6-18.6,70.6-18.6c22.2,0,42.5,4.9,60.9,14.7c18.3,9.8,34.9,24.7,49.7,44.7l68.4-45c-16.3-20.7-33.7-37.8-52.2-51.1
		c-18.5-13.3-38.4-23.2-59.7-29.7c-21.3-6.5-44-9.7-68.1-9.7c-40.8,0-78.1,9.5-112,28.3c-33.9,18.9-60.7,44.9-80.3,78.1
		C9.8,300.2,0,337.8,0,379.6c0,40,9.6,76.5,28.9,109.5c19.3,33,45.6,58.9,78.9,77.8c33.3,18.9,69.8,28.3,109.5,28.3
		c41.1,0,76.8-8.8,107.2-26.5V452.1C321.5,461,317.2,469.4,311.5,477.2z"/>
</g>
<line class="st2" x1="631.1" y1="503.1" x2="608.6" y2="503.1"/>
<g>
	<g>
		<path class="st3" d="M616.5,533.1c-1.2,0-2.4-0.3-3.4-0.9c-1-0.6-1.8-1.4-2.4-2.5c-0.6-1.1-0.9-2.2-0.9-3.5c0-1.3,0.3-2.5,0.9-3.5
			s1.5-1.9,2.5-2.5c1.1-0.6,2.2-0.9,3.4-0.9c0.7,0,1.4,0.1,2.1,0.3c0.6,0.2,1.2,0.5,1.8,0.9c0.6,0.4,1.1,0.9,1.6,1.5l-1.1,1
			c-0.6-0.8-1.2-1.3-1.9-1.7c-0.7-0.4-1.5-0.6-2.4-0.6c-1,0-1.9,0.2-2.7,0.7c-0.8,0.5-1.5,1.2-2,2c-0.5,0.8-0.7,1.8-0.7,2.8
			c0,1,0.2,2,0.7,2.8c0.5,0.8,1.1,1.5,1.9,2c0.8,0.5,1.7,0.7,2.6,0.7c0.8,0,1.6-0.2,2.3-0.6c0.7-0.4,1.2-0.9,1.6-1.5
			c0.4-0.6,0.6-1.3,0.7-2.1v0h-3.8v-1.4h5.4v0.3c0,1.3-0.3,2.5-0.8,3.5c-0.5,1-1.3,1.8-2.2,2.3C618.8,532.8,617.7,533.1,616.5,533.1
			z"/>
		<path class="st3" d="M625.4,532.8v-8.2h1.4v1h0c0.2-0.3,0.4-0.5,0.5-0.7c0.2-0.2,0.4-0.3,0.6-0.4c0.2-0.1,0.5-0.2,0.7-0.2
			c0.2,0,0.4,0,0.7,0.1c0.2,0.1,0.4,0.2,0.7,0.3l-0.6,1.3c-0.2-0.1-0.3-0.2-0.5-0.2c-0.2-0.1-0.3-0.1-0.5-0.1
			c-0.3,0-0.6,0.1-0.9,0.3c-0.2,0.2-0.4,0.5-0.6,0.9c-0.1,0.4-0.2,0.9-0.2,1.4v4.5H625.4z"/>
		<path class="st3" d="M635.2,533.1c-0.8,0-1.5-0.2-2.1-0.6c-0.6-0.4-1.1-0.9-1.5-1.6c-0.4-0.7-0.5-1.4-0.5-2.2
			c0-0.8,0.2-1.5,0.5-2.2c0.4-0.7,0.8-1.2,1.5-1.6c0.6-0.4,1.3-0.6,2.1-0.6c0.4,0,0.8,0.1,1.2,0.2c0.4,0.1,0.7,0.3,1,0.5
			c0.3,0.2,0.6,0.6,0.9,0.9h0v-1.4h1.4v8.2h-1.4v-1.4h0c-0.3,0.4-0.5,0.7-0.9,0.9c-0.3,0.2-0.7,0.4-1,0.5S635.6,533.1,635.2,533.1z
			 M635.4,531.8c0.6,0,1.1-0.1,1.5-0.4c0.4-0.3,0.8-0.6,1-1.1c0.2-0.5,0.4-1,0.4-1.6c0-0.6-0.1-1.1-0.4-1.6c-0.2-0.5-0.6-0.8-1-1.1
			c-0.4-0.3-0.9-0.4-1.5-0.4c-0.5,0-1,0.1-1.5,0.4c-0.4,0.3-0.8,0.6-1,1.1c-0.2,0.5-0.4,1-0.4,1.5c0,0.6,0.1,1.1,0.4,1.6
			c0.2,0.5,0.6,0.8,1,1.1C634.4,531.7,634.9,531.8,635.4,531.8z"/>
		<path class="st3" d="M642.8,532.8v-8.2h1.4v1.2h0c0.2-0.3,0.4-0.5,0.6-0.8c0.2-0.2,0.5-0.4,0.9-0.5c0.3-0.1,0.7-0.2,1.1-0.2
			c0.6,0,1.1,0.1,1.6,0.4c0.4,0.3,0.7,0.6,0.9,1.1c0.2,0.5,0.3,1.1,0.3,1.8v5.2h-1.4V528c0-0.5-0.1-1-0.2-1.3
			c-0.1-0.3-0.3-0.6-0.6-0.8c-0.3-0.2-0.6-0.2-1-0.2c-0.4,0-0.8,0.1-1.2,0.3c-0.3,0.2-0.6,0.5-0.8,0.9c-0.2,0.4-0.3,0.9-0.3,1.6v4.4
			H642.8z"/>
		<path class="st3" d="M652.6,532.8v-8.2h1.4v1.2h0c0.2-0.3,0.4-0.5,0.6-0.8c0.2-0.2,0.5-0.4,0.9-0.5c0.3-0.1,0.7-0.2,1.1-0.2
			c0.6,0,1.1,0.1,1.6,0.4c0.4,0.3,0.7,0.6,0.9,1.1c0.2,0.5,0.3,1.1,0.3,1.8v5.2h-1.4V528c0-0.5-0.1-1-0.2-1.3
			c-0.1-0.3-0.3-0.6-0.6-0.8c-0.3-0.2-0.6-0.2-1-0.2c-0.4,0-0.8,0.1-1.2,0.3c-0.3,0.2-0.6,0.5-0.8,0.9c-0.2,0.4-0.3,0.9-0.3,1.6v4.4
			H652.6z"/>
		<path class="st3" d="M666,533.1c-0.8,0-1.5-0.2-2.1-0.6c-0.6-0.4-1.1-0.9-1.4-1.5c-0.3-0.7-0.5-1.4-0.5-2.3c0-0.8,0.2-1.6,0.5-2.2
			c0.3-0.7,0.8-1.2,1.4-1.5c0.6-0.4,1.3-0.6,2.1-0.6c0.8,0,1.5,0.2,2.1,0.5c0.6,0.4,1,0.9,1.3,1.5c0.3,0.6,0.5,1.4,0.5,2.2
			c0,0.1,0,0.1,0,0.2c0,0.1,0,0.1,0,0.2h-7v-1.2h5.5c0-0.4-0.2-0.8-0.4-1.1c-0.2-0.3-0.5-0.6-0.8-0.8c-0.3-0.2-0.7-0.3-1.2-0.3
			c-0.4,0-0.8,0.1-1.2,0.3c-0.4,0.2-0.6,0.4-0.9,0.8c-0.2,0.3-0.4,0.7-0.4,1.1l-0.1,1.1c0,0.6,0.1,1,0.3,1.5c0.2,0.4,0.5,0.8,0.9,1
			c0.4,0.2,0.8,0.4,1.4,0.4c0.5,0,1-0.1,1.4-0.3c0.4-0.2,0.7-0.6,1-1l1.1,0.7c-0.2,0.4-0.5,0.8-0.8,1.1c-0.3,0.3-0.7,0.5-1.2,0.7
			C667.1,533,666.6,533.1,666,533.1z"/>
		<path class="st3" d="M670.9,532.8l3.5-4.5l0.8-1l2.1-2.8h1.7l-3,3.8l-0.9,1l-2.5,3.4H670.9z M677.7,532.8l-2.6-3.5l-0.7-0.8
			l-3-3.9h1.7l2.2,2.9l0.7,0.9l3.4,4.5H677.7z"/>
		<path class="st3" d="M692.7,533.1c-1.2,0-2.4-0.3-3.4-0.9c-1-0.6-1.8-1.4-2.4-2.5c-0.6-1.1-0.9-2.2-0.9-3.5c0-1.3,0.3-2.5,0.9-3.5
			s1.5-1.9,2.5-2.5c1.1-0.6,2.2-0.9,3.4-0.9c0.7,0,1.4,0.1,2.1,0.3c0.6,0.2,1.2,0.5,1.8,0.9c0.6,0.4,1.1,0.9,1.6,1.5l-1.1,1
			c-0.6-0.8-1.2-1.3-1.9-1.7c-0.7-0.4-1.5-0.6-2.4-0.6c-1,0-1.9,0.2-2.7,0.7c-0.8,0.5-1.5,1.2-2,2c-0.5,0.8-0.7,1.8-0.7,2.8
			c0,1,0.2,2,0.7,2.8c0.5,0.8,1.1,1.5,1.9,2c0.8,0.5,1.7,0.7,2.6,0.7c0.8,0,1.6-0.2,2.3-0.6c0.7-0.4,1.2-0.9,1.6-1.5
			c0.4-0.6,0.6-1.3,0.7-2.1v0h-3.8v-1.4h5.4v0.3c0,1.3-0.3,2.5-0.8,3.5c-0.5,1-1.3,1.8-2.2,2.3C695,532.8,693.9,533.1,692.7,533.1z"
			/>
		<path class="st3" d="M701.6,532.8v-8.2h1.4v1h0c0.2-0.3,0.4-0.5,0.5-0.7c0.2-0.2,0.4-0.3,0.6-0.4c0.2-0.1,0.5-0.2,0.7-0.2
			c0.2,0,0.4,0,0.7,0.1c0.2,0.1,0.4,0.2,0.7,0.3l-0.6,1.3c-0.2-0.1-0.3-0.2-0.5-0.2c-0.2-0.1-0.3-0.1-0.5-0.1
			c-0.3,0-0.6,0.1-0.9,0.3c-0.2,0.2-0.4,0.5-0.6,0.9c-0.1,0.4-0.2,0.9-0.2,1.4v4.5H701.6z"/>
		<path class="st3" d="M711.7,533.1c-0.8,0-1.6-0.2-2.2-0.6c-0.7-0.4-1.2-0.9-1.5-1.6c-0.4-0.7-0.6-1.4-0.6-2.2
			c0-0.8,0.2-1.5,0.6-2.2c0.4-0.7,0.9-1.2,1.6-1.6c0.7-0.4,1.4-0.6,2.3-0.6c0.8,0,1.6,0.2,2.3,0.6c0.7,0.4,1.2,0.9,1.6,1.6
			c0.4,0.7,0.6,1.4,0.6,2.2s-0.2,1.6-0.6,2.2c-0.4,0.7-0.9,1.2-1.6,1.6C713.3,532.9,712.5,533.1,711.7,533.1z M711.7,531.8
			c0.6,0,1.1-0.1,1.5-0.4c0.5-0.3,0.8-0.6,1-1.1c0.2-0.5,0.4-1,0.4-1.6c0-0.6-0.1-1.1-0.4-1.6c-0.2-0.5-0.6-0.8-1-1.1
			c-0.4-0.3-0.9-0.4-1.5-0.4c-0.6,0-1.1,0.1-1.5,0.4c-0.4,0.3-0.8,0.6-1,1.1c-0.2,0.5-0.4,1-0.4,1.6c0,0.6,0.1,1.2,0.4,1.6
			c0.2,0.5,0.6,0.8,1,1.1C710.6,531.7,711.1,531.8,711.7,531.8z"/>
		<path class="st3" d="M721.8,533.1c-0.7,0-1.3-0.1-1.8-0.4s-0.9-0.7-1.1-1.2c-0.3-0.5-0.4-1.2-0.4-2v-4.8h1.4v4.8
			c0,0.5,0.1,1,0.2,1.3c0.1,0.4,0.3,0.6,0.6,0.8c0.3,0.2,0.6,0.3,1.1,0.3c0.4,0,0.8-0.1,1.1-0.3c0.3-0.2,0.5-0.5,0.6-0.8
			c0.1-0.4,0.2-0.8,0.2-1.3v-4.8h1.4v4.8c0,0.8-0.1,1.4-0.4,1.9c-0.2,0.5-0.6,1-1.1,1.3C723.2,532.9,722.5,533.1,721.8,533.1z"/>
		<path class="st3" d="M728.1,537.5v-12.9h1.4v1.4h0c0.3-0.4,0.5-0.7,0.9-0.9c0.3-0.2,0.7-0.4,1-0.5c0.4-0.1,0.7-0.2,1.1-0.2
			c0.8,0,1.5,0.2,2.1,0.6c0.6,0.4,1.1,0.9,1.5,1.6c0.4,0.7,0.5,1.4,0.5,2.2c0,0.8-0.2,1.5-0.5,2.2c-0.4,0.7-0.8,1.2-1.5,1.6
			c-0.6,0.4-1.3,0.6-2,0.6c-0.4,0-0.8-0.1-1.2-0.2c-0.4-0.1-0.7-0.3-1-0.5c-0.3-0.2-0.6-0.6-0.9-0.9h0c0,0.3,0,0.5,0,0.8
			c0,0.3,0,0.5,0,0.8v4.5H728.1z M732.3,531.8c0.6,0,1.1-0.1,1.5-0.4c0.4-0.3,0.8-0.6,1-1.1c0.2-0.5,0.4-1,0.4-1.6
			c0-0.6-0.1-1.1-0.4-1.6c-0.2-0.5-0.6-0.8-1-1.1c-0.4-0.3-0.9-0.4-1.5-0.4c-0.6,0-1.1,0.1-1.5,0.4c-0.4,0.3-0.8,0.6-1,1.1
			c-0.2,0.5-0.4,1-0.4,1.6c0,0.6,0.1,1.1,0.4,1.6c0.2,0.5,0.6,0.8,1,1.1C731.3,531.7,731.8,531.8,732.3,531.8z"/>
		<path class="st3" d="M744.8,532.8v-13.3h1.5v12h4.2v1.4H744.8z"/>
		<path class="st3" d="M753,522c-0.2,0-0.3,0-0.5-0.1c-0.1-0.1-0.3-0.2-0.4-0.4c-0.1-0.1-0.1-0.3-0.1-0.5c0-0.2,0-0.3,0.1-0.5
			c0.1-0.1,0.2-0.3,0.4-0.4s0.3-0.1,0.5-0.1c0.2,0,0.4,0,0.5,0.1c0.1,0.1,0.3,0.2,0.4,0.4c0.1,0.2,0.1,0.3,0.1,0.5
			c0,0.2,0,0.3-0.1,0.5c-0.1,0.1-0.2,0.3-0.4,0.4C753.4,522,753.2,522,753,522z M752.3,532.8v-8.2h1.4v8.2H752.3z"/>
		<path class="st3" d="M756.8,532.8v-8.2h1.4v1.1h0c0.2-0.2,0.3-0.5,0.5-0.7c0.2-0.2,0.4-0.4,0.7-0.5c0.3-0.1,0.6-0.2,1-0.2
			c0.6,0,1.1,0.1,1.5,0.4c0.4,0.2,0.7,0.6,0.9,1.2h0c0.2-0.3,0.4-0.6,0.6-0.8c0.2-0.2,0.5-0.4,0.9-0.5c0.3-0.1,0.7-0.2,1.1-0.2
			c0.6,0,1.2,0.1,1.6,0.4c0.4,0.2,0.7,0.6,1,1.1c0.2,0.5,0.3,1.1,0.3,1.8v5.2h-1.4V528c0-0.6-0.1-1-0.2-1.4
			c-0.1-0.3-0.3-0.6-0.6-0.8c-0.3-0.2-0.6-0.2-1-0.2c-0.4,0-0.8,0.1-1.1,0.3c-0.3,0.2-0.5,0.5-0.6,0.9c-0.1,0.4-0.2,0.8-0.2,1.4v4.6
			h-1.4v-4.9c0-0.5-0.1-0.9-0.2-1.3c-0.1-0.3-0.3-0.6-0.6-0.7c-0.2-0.2-0.6-0.2-0.9-0.2c-0.4,0-0.8,0.1-1.1,0.3
			c-0.3,0.2-0.5,0.5-0.6,0.9s-0.2,0.9-0.2,1.4v4.6H756.8z"/>
		<path class="st3" d="M772,522c-0.2,0-0.3,0-0.5-0.1c-0.1-0.1-0.3-0.2-0.4-0.4c-0.1-0.1-0.1-0.3-0.1-0.5c0-0.2,0-0.3,0.1-0.5
			c0.1-0.1,0.2-0.3,0.4-0.4c0.1-0.1,0.3-0.1,0.5-0.1c0.2,0,0.4,0,0.5,0.1c0.1,0.1,0.3,0.2,0.4,0.4c0.1,0.2,0.1,0.3,0.1,0.5
			c0,0.2,0,0.3-0.1,0.5c-0.1,0.1-0.2,0.3-0.4,0.4C772.3,522,772.2,522,772,522z M771.3,532.8v-8.2h1.4v8.2H771.3z"/>
		<path class="st3" d="M776,532.8v-6.9h-1.4v-1.3h1.4v-3h1.4v3h1.5v1.3h-1.5v6.9H776z"/>
		<path class="st3" d="M784.3,533.1c-0.8,0-1.5-0.2-2.1-0.6c-0.6-0.4-1.1-0.9-1.4-1.5c-0.3-0.7-0.5-1.4-0.5-2.3
			c0-0.8,0.2-1.6,0.5-2.2c0.3-0.7,0.8-1.2,1.4-1.5c0.6-0.4,1.3-0.6,2.1-0.6c0.8,0,1.5,0.2,2.1,0.5c0.6,0.4,1,0.9,1.3,1.5
			c0.3,0.6,0.5,1.4,0.5,2.2c0,0.1,0,0.1,0,0.2c0,0.1,0,0.1,0,0.2h-7v-1.2h5.5c0-0.4-0.2-0.8-0.4-1.1c-0.2-0.3-0.5-0.6-0.8-0.8
			c-0.3-0.2-0.7-0.3-1.2-0.3c-0.4,0-0.8,0.1-1.2,0.3c-0.4,0.2-0.6,0.4-0.9,0.8c-0.2,0.3-0.4,0.7-0.4,1.1l-0.1,1.1
			c0,0.6,0.1,1,0.3,1.5c0.2,0.4,0.5,0.8,0.9,1c0.4,0.2,0.8,0.4,1.4,0.4c0.5,0,1-0.1,1.4-0.3c0.4-0.2,0.7-0.6,1-1l1.1,0.7
			c-0.2,0.4-0.5,0.8-0.8,1.1c-0.3,0.3-0.7,0.5-1.2,0.7C785.4,533,784.9,533.1,784.3,533.1z"/>
		<path class="st3" d="M794.1,533c-0.8,0-1.4-0.2-2.1-0.6c-0.6-0.4-1.1-0.9-1.5-1.6c-0.4-0.7-0.5-1.4-0.5-2.2c0-0.8,0.2-1.5,0.5-2.2
			c0.4-0.7,0.9-1.2,1.5-1.6c0.6-0.4,1.3-0.6,2.1-0.6c0.4,0,0.8,0.1,1.1,0.2c0.4,0.1,0.7,0.3,1,0.5c0.3,0.2,0.6,0.5,0.9,0.9h0
			c0-0.1,0-0.2,0-0.3c0-0.1,0-0.2,0-0.3c0-0.1,0-0.3,0-0.4c0-0.1,0-0.3,0-0.4v-6.4h1.4v14.5h-1.4v-1.4h0c-0.3,0.4-0.5,0.7-0.9,0.9
			c-0.3,0.2-0.7,0.4-1,0.5C794.9,533,794.5,533,794.1,533z M794.3,531.8c0.6,0,1.1-0.1,1.5-0.4c0.4-0.3,0.8-0.6,1-1.1
			c0.2-0.5,0.4-1,0.4-1.6c0-0.6-0.1-1.1-0.4-1.6c-0.2-0.5-0.6-0.8-1-1.1c-0.4-0.3-0.9-0.4-1.5-0.4c-0.6,0-1.1,0.1-1.5,0.4
			c-0.4,0.3-0.8,0.6-1,1.1c-0.2,0.5-0.4,1-0.4,1.6c0,0.6,0.1,1.1,0.4,1.6c0.2,0.5,0.6,0.8,1,1.1
			C793.3,531.6,793.8,531.8,794.3,531.8z"/>
		<path class="st3" d="M610.6,556.1v-13.3h0.7v12.7h4.5v0.7H610.6z"/>
		<path class="st3" d="M621.4,556.3c-0.8,0-1.5-0.2-2.2-0.5c-0.6-0.4-1.1-0.9-1.5-1.5c-0.4-0.7-0.5-1.4-0.5-2.2
			c0-0.8,0.2-1.5,0.5-2.1s0.9-1.1,1.5-1.5s1.4-0.6,2.1-0.6c0.8,0,1.5,0.2,2.2,0.5c0.6,0.4,1.2,0.9,1.5,1.5c0.4,0.6,0.6,1.4,0.6,2.2
			c0,0.8-0.2,1.5-0.6,2.2c-0.4,0.6-0.9,1.2-1.5,1.5C622.9,556.1,622.2,556.3,621.4,556.3z M621.4,555.7c0.7,0,1.3-0.2,1.8-0.5
			c0.5-0.3,1-0.7,1.3-1.3c0.3-0.5,0.5-1.2,0.5-1.9c0-0.7-0.2-1.3-0.5-1.8c-0.3-0.5-0.7-1-1.3-1.3c-0.5-0.3-1.1-0.5-1.8-0.5
			c-0.6,0-1.2,0.2-1.8,0.5c-0.5,0.3-0.9,0.7-1.2,1.3c-0.3,0.5-0.5,1.2-0.5,1.8c0,0.7,0.2,1.3,0.5,1.9c0.3,0.5,0.7,1,1.2,1.3
			C620.1,555.5,620.7,555.7,621.4,555.7z"/>
		<path class="st3" d="M631.6,560.9c-0.7,0-1.3-0.1-1.9-0.3s-1-0.6-1.4-1.1c-0.4-0.5-0.6-1.1-0.7-1.9l0.7-0.1
			c0.1,0.6,0.3,1.2,0.6,1.6c0.3,0.4,0.7,0.7,1.2,0.9c0.5,0.2,1,0.3,1.5,0.3c0.7,0,1.4-0.2,1.9-0.5c0.5-0.3,0.9-0.8,1.1-1.4
			c0.2-0.6,0.4-1.3,0.4-2.2V554h0c-0.2,0.4-0.4,0.8-0.8,1.2c-0.3,0.3-0.7,0.6-1.2,0.8c-0.5,0.2-1,0.3-1.5,0.3c-0.7,0-1.4-0.2-2-0.5
			c-0.6-0.4-1.1-0.9-1.4-1.5c-0.3-0.6-0.5-1.4-0.5-2.2c0-0.8,0.2-1.5,0.5-2.1s0.8-1.1,1.4-1.5c0.6-0.4,1.2-0.6,2-0.6
			c0.6,0,1.1,0.1,1.5,0.3c0.5,0.2,0.8,0.5,1.2,0.8c0.3,0.3,0.6,0.7,0.8,1.2h0v-2h0.7v8.1c0,1-0.1,1.8-0.4,2.5
			c-0.3,0.7-0.7,1.2-1.3,1.6C633.2,560.7,632.5,560.9,631.6,560.9z M631.6,555.7c0.6,0,1.2-0.1,1.7-0.4c0.5-0.3,0.9-0.7,1.2-1.2
			c0.3-0.5,0.5-1.2,0.5-1.9c0-0.8-0.2-1.4-0.5-1.9c-0.3-0.5-0.7-1-1.2-1.2c-0.5-0.3-1.1-0.4-1.7-0.4c-0.6,0-1.2,0.2-1.7,0.5
			c-0.5,0.3-0.9,0.7-1.2,1.3s-0.4,1.2-0.4,1.8c0,0.7,0.1,1.3,0.4,1.8c0.3,0.5,0.7,1,1.2,1.3C630.4,555.5,631,555.7,631.6,555.7z"/>
		<path class="st3" d="M642.5,556.3c-0.8,0-1.5-0.2-2.2-0.5s-1.1-0.9-1.5-1.5c-0.4-0.7-0.5-1.4-0.5-2.2c0-0.8,0.2-1.5,0.5-2.1
			c0.4-0.6,0.9-1.1,1.5-1.5c0.6-0.4,1.4-0.6,2.1-0.6s1.5,0.2,2.2,0.5c0.6,0.4,1.2,0.9,1.5,1.5c0.4,0.6,0.6,1.4,0.6,2.2
			c0,0.8-0.2,1.5-0.6,2.2c-0.4,0.6-0.9,1.2-1.5,1.5S643.2,556.3,642.5,556.3z M642.5,555.7c0.7,0,1.3-0.2,1.8-0.5
			c0.5-0.3,0.9-0.7,1.3-1.3c0.3-0.5,0.5-1.2,0.5-1.9c0-0.7-0.2-1.3-0.5-1.8c-0.3-0.5-0.7-1-1.3-1.3c-0.5-0.3-1.1-0.5-1.8-0.5
			c-0.6,0-1.2,0.2-1.8,0.5c-0.5,0.3-0.9,0.7-1.2,1.3s-0.5,1.2-0.5,1.8c0,0.7,0.2,1.3,0.5,1.9s0.7,1,1.2,1.3
			C641.2,555.5,641.8,555.7,642.5,555.7z"/>
		<path class="st3" d="M655,556.1v-13.3h1.7c0.9,0,1.7,0.1,2.4,0.4c0.7,0.2,1.2,0.6,1.6,1.2c0.4,0.5,0.6,1.2,0.6,2
			c0,0.8-0.2,1.5-0.5,2c-0.4,0.6-0.9,1-1.5,1.3c-0.6,0.3-1.4,0.4-2.3,0.4h-1.2v6.1H655z M656.9,549.3c0.8,0,1.4-0.1,1.9-0.3
			c0.5-0.2,0.9-0.6,1.2-1c0.3-0.4,0.4-1,0.4-1.6c0-0.7-0.2-1.2-0.5-1.6c-0.3-0.4-0.7-0.8-1.3-1c-0.6-0.2-1.2-0.3-2-0.3h-1.1v5.9
			H656.9z"/>
		<path class="st3" d="M667,556.3c-0.7,0-1.4-0.2-2-0.6c-0.6-0.4-1.1-0.9-1.4-1.5c-0.3-0.6-0.5-1.4-0.5-2.2c0-0.8,0.2-1.5,0.5-2.1
			c0.3-0.6,0.8-1.2,1.4-1.5s1.3-0.6,2-0.6c0.5,0,0.9,0.1,1.4,0.2c0.4,0.2,0.8,0.4,1.2,0.8s0.6,0.8,0.9,1.2h0v-2h0.7v8h-0.7v-2h0
			c-0.2,0.5-0.5,0.9-0.9,1.3c-0.4,0.3-0.7,0.6-1.2,0.8C667.9,556.2,667.4,556.3,667,556.3z M667,555.7c0.6,0,1.2-0.2,1.7-0.5
			c0.5-0.3,0.9-0.7,1.2-1.3c0.3-0.5,0.5-1.2,0.5-1.9c0-0.7-0.2-1.3-0.5-1.9c-0.3-0.5-0.7-1-1.2-1.3c-0.5-0.3-1.1-0.5-1.7-0.5
			c-0.6,0-1.2,0.2-1.7,0.5c-0.5,0.3-0.9,0.7-1.2,1.3c-0.3,0.5-0.4,1.1-0.4,1.8c0,0.7,0.1,1.3,0.4,1.8c0.3,0.5,0.7,1,1.2,1.3
			C665.9,555.5,666.4,555.7,667,555.7z"/>
		<path class="st3" d="M677.9,556.3c-0.8,0-1.5-0.2-2.2-0.5s-1.1-0.9-1.5-1.5s-0.5-1.4-0.5-2.2c0-0.8,0.2-1.5,0.5-2.2
			c0.4-0.6,0.8-1.2,1.5-1.5c0.6-0.4,1.4-0.5,2.2-0.5c0.4,0,0.9,0.1,1.2,0.2c0.4,0.1,0.7,0.3,1,0.5v0.8c-0.2-0.2-0.4-0.3-0.6-0.4
			c-0.2-0.1-0.4-0.2-0.7-0.3c-0.1,0-0.3-0.1-0.5-0.1c-0.2,0-0.3,0-0.5,0c-0.7,0-1.3,0.2-1.8,0.5c-0.5,0.3-0.9,0.7-1.2,1.3
			c-0.3,0.5-0.4,1.2-0.4,1.8c0,0.7,0.1,1.3,0.4,1.8c0.3,0.5,0.7,1,1.2,1.3c0.5,0.3,1.1,0.5,1.8,0.5c0.5,0,0.9-0.1,1.2-0.2
			c0.4-0.1,0.7-0.3,1-0.6v0.8c-0.3,0.2-0.6,0.4-1,0.5C678.8,556.2,678.4,556.3,677.9,556.3z"/>
		<path class="st3" d="M682.7,556.1v-14.5h0.7v10.2l4.2-3.7h0.9l-4.3,3.9l0-0.5l4.6,4.6h-0.9l-4.2-4.2l0.4,0.1l-0.7,0.6v3.5H682.7z"
			/>
		<path class="st3" d="M694,556.3c-0.7,0-1.4-0.2-2-0.6c-0.6-0.4-1.1-0.9-1.4-1.5c-0.3-0.6-0.5-1.4-0.5-2.2c0-0.8,0.2-1.5,0.5-2.1
			c0.3-0.6,0.8-1.2,1.4-1.5c0.6-0.4,1.3-0.6,2-0.6c0.5,0,0.9,0.1,1.4,0.2c0.4,0.2,0.8,0.4,1.2,0.8s0.6,0.8,0.9,1.2h0v-2h0.7v8h-0.7
			v-2h0c-0.2,0.5-0.5,0.9-0.9,1.3c-0.4,0.3-0.7,0.6-1.2,0.8S694.4,556.3,694,556.3z M694,555.7c0.6,0,1.2-0.2,1.7-0.5
			c0.5-0.3,0.9-0.7,1.2-1.3c0.3-0.5,0.5-1.2,0.5-1.9c0-0.7-0.2-1.3-0.5-1.9c-0.3-0.5-0.7-1-1.2-1.3c-0.5-0.3-1.1-0.5-1.7-0.5
			c-0.6,0-1.2,0.2-1.7,0.5c-0.5,0.3-0.9,0.7-1.2,1.3c-0.3,0.5-0.4,1.1-0.4,1.8c0,0.7,0.1,1.3,0.4,1.8c0.3,0.5,0.7,1,1.2,1.3
			C692.8,555.5,693.4,555.7,694,555.7z"/>
		<path class="st3" d="M704.7,560.9c-0.7,0-1.3-0.1-1.9-0.3c-0.6-0.2-1-0.6-1.4-1.1c-0.4-0.5-0.6-1.1-0.7-1.9l0.7-0.1
			c0.1,0.6,0.3,1.2,0.6,1.6c0.3,0.4,0.7,0.7,1.2,0.9c0.5,0.2,1,0.3,1.5,0.3c0.7,0,1.4-0.2,1.9-0.5c0.5-0.3,0.9-0.8,1.1-1.4
			c0.2-0.6,0.4-1.3,0.4-2.2V554h0c-0.2,0.4-0.4,0.8-0.8,1.2c-0.3,0.3-0.7,0.6-1.2,0.8c-0.5,0.2-1,0.3-1.5,0.3c-0.7,0-1.4-0.2-2-0.5
			c-0.6-0.4-1.1-0.9-1.4-1.5c-0.3-0.6-0.5-1.4-0.5-2.2c0-0.8,0.2-1.5,0.5-2.1c0.3-0.6,0.8-1.1,1.4-1.5c0.6-0.4,1.2-0.6,2-0.6
			c0.6,0,1.1,0.1,1.5,0.3c0.5,0.2,0.8,0.5,1.2,0.8c0.3,0.3,0.6,0.7,0.8,1.2h0v-2h0.7v8.1c0,1-0.1,1.8-0.4,2.5s-0.7,1.2-1.3,1.6
			C706.4,560.7,705.6,560.9,704.7,560.9z M704.7,555.7c0.6,0,1.2-0.1,1.7-0.4c0.5-0.3,0.9-0.7,1.2-1.2c0.3-0.5,0.5-1.2,0.5-1.9
			c0-0.8-0.2-1.4-0.5-1.9c-0.3-0.5-0.7-1-1.2-1.2c-0.5-0.3-1.1-0.4-1.7-0.4c-0.6,0-1.2,0.2-1.7,0.5c-0.5,0.3-0.9,0.7-1.2,1.3
			c-0.3,0.5-0.4,1.2-0.4,1.8c0,0.7,0.1,1.3,0.4,1.8c0.3,0.5,0.7,1,1.2,1.3C703.5,555.5,704.1,555.7,704.7,555.7z"/>
		<path class="st3" d="M715.3,556.3c-0.8,0-1.5-0.2-2.1-0.5c-0.6-0.4-1.1-0.9-1.4-1.5c-0.3-0.6-0.5-1.4-0.5-2.2
			c0-0.8,0.2-1.5,0.5-2.2c0.3-0.6,0.8-1.1,1.4-1.5c0.6-0.4,1.3-0.5,2-0.5c0.8,0,1.4,0.2,2,0.5c0.6,0.4,1,0.9,1.3,1.5
			c0.3,0.6,0.4,1.2,0.4,1.9c0,0,0,0.1,0,0.2s0,0.1,0,0.2h-7.2v-0.6h6.5c0-0.5-0.2-1-0.4-1.5c-0.2-0.5-0.6-0.8-1.1-1.1
			s-1-0.4-1.6-0.4c-0.6,0-1.1,0.1-1.5,0.4c-0.5,0.3-0.8,0.6-1.1,1.1c-0.3,0.5-0.4,1-0.5,1.5l0,0.5c0,0.7,0.1,1.3,0.4,1.9
			c0.3,0.6,0.6,1,1.1,1.3c0.5,0.3,1.1,0.5,1.7,0.5c0.7,0,1.2-0.1,1.7-0.4s0.8-0.6,1.1-1.1l0.6,0.3c-0.2,0.4-0.5,0.7-0.8,0.9
			c-0.3,0.3-0.7,0.5-1.1,0.6C716.4,556.2,715.9,556.3,715.3,556.3z"/>
	</g>
</g>
<g>
	<path class="st1" d="M737.1,0c45.7,22,82.8,59.1,104.8,104.8V0H737.1z"/>
</g>
</svg>
