<svg width="960" height="960" viewBox="0 0 960 960" fill="none" xmlns="http://www.w3.org/2000/svg">
<g clip-path="url(#clip0_443_84)">
<path d="M846.599 451.559C845.23 446.299 843.699 441.07 841.98 435.909L842.305 435.801C855.394 440.154 867.764 447.363 876.705 457.862C885.646 468.361 890.887 482.356 889.331 496.062C888.159 506.304 883.343 515.867 877.089 524.081C869.932 533.386 860.976 541.156 850.754 546.929C840.532 552.701 829.253 556.358 817.589 557.681L816.789 557.651L818.581 512.051L816.917 511.116C823.317 510.731 829.651 509.559 835.078 506.26C843.617 501.05 848.512 491.16 849.772 481.234C851.032 471.308 849.099 461.25 846.599 451.559Z" fill="url(#paint0_linear_443_84)"/>
<path d="M827.706 280.218L822.693 411.453L821.255 449.194L821.413 450.287C815.779 451.055 810.195 451.627 804.552 452.06L804.424 450.46L810.963 280.213C811.394 269.281 807.587 258.605 800.337 250.411C793.087 242.218 782.954 237.14 772.051 236.238L772.061 236.09L783.239 236.14C789.12 235.856 794.997 236.799 800.494 238.908C805.992 241.018 810.99 244.248 815.172 248.393C819.354 252.539 822.628 257.509 824.786 262.988C826.943 268.466 827.938 274.334 827.706 280.218Z" fill="#171717"/>
<path d="M780.5 662.52C782.548 670.449 780.461 687.339 776.186 689.27L593.993 771.438C564.732 784.625 531.628 786.527 501.05 776.776L500.685 776.658L434.885 755.651L434.461 754.981C438.41 752.519 442.362 750.06 446.319 747.604C448.833 746.227 451.09 744.424 452.987 742.276L453.787 742.345L501.052 757.079C531.63 766.829 564.734 764.927 593.995 751.741L776.188 669.572C777.482 669.008 778.528 667.996 779.135 666.722C779.741 665.447 779.867 663.997 779.488 662.638L780.5 662.52Z" fill="#171717"/>
<path d="M816.793 557.648L814.528 615.106C813.582 639.265 792.828 658.589 768.75 656.373H756.9L756.871 656.668L751.68 656.195L751.749 655.466C757.453 655.993 763.204 655.352 768.652 653.583C774.101 651.815 779.132 648.955 783.439 645.179C787.746 641.403 791.239 636.789 793.705 631.619C796.171 626.448 797.559 620.83 797.783 615.106L801.84 512.048L801.87 511.132C804.844 511.241 807.75 511.29 810.537 511.29C812.654 511.28 814.791 511.241 816.919 511.113L818.583 512.048L816.793 557.648Z" fill="#171717"/>
<path d="M667.486 665.178L719.438 671.383C720.021 671.451 720.564 671.711 720.983 672.122C721.402 672.533 721.673 673.072 721.753 673.653C721.833 674.234 721.718 674.826 721.426 675.335C721.133 675.844 720.68 676.241 720.138 676.465L676.938 694.265L626.305 686.15C649.551 674.328 667.486 665.178 667.486 665.178Z" fill="#171717"/>
<path d="M621.187 659.652L667.487 665.177C667.487 665.177 649.552 674.327 626.309 686.146L581.645 678.985L621.187 659.652Z" fill="#171717"/>
<path d="M626.307 686.146L676.94 694.262L631.1 713.151L589.391 704.869C601.98 698.5 614.794 691.999 626.307 686.146Z" fill="#171717"/>
<path d="M546.246 696.291L581.646 678.986L626.31 686.147C614.797 691.997 601.983 698.497 589.397 704.869L546.246 696.291Z" fill="#171717"/>
<path d="M552.766 723.326C563.6 717.899 576.374 711.458 589.394 704.869L631.103 713.152L586.449 731.552L552.766 723.326Z" fill="#171717"/>
<path d="M586.45 731.549L558.174 743.199C553.889 744.962 549.138 745.246 544.674 744.006L522.721 737.906C523.371 737.906 535.633 731.888 552.77 723.32L586.45 731.549Z" fill="#171717"/>
<path d="M532.379 671.088L581.643 678.988L546.243 696.293L501.443 687.393C512 681.823 522.747 676.16 532.379 671.088Z" fill="#171717"/>
<path d="M581.643 678.985L532.379 671.085C551.633 660.931 566.446 653.111 566.446 653.111L621.186 659.65L581.643 678.985Z" fill="#171717"/>
<path d="M552.766 723.326L511.549 713.26L546.249 696.291L589.397 704.869C576.374 711.458 563.6 717.9 552.766 723.326Z" fill="#171717"/>
<path d="M483.42 727.009L511.549 713.26L552.766 723.326C535.629 731.894 523.366 737.912 522.717 737.912H522.7L483.42 727.009Z" fill="#171717"/>
<path d="M546.245 696.291L511.545 713.26L471.076 703.372C480.068 698.645 490.655 693.072 501.44 687.387L546.245 696.291Z" fill="#171717"/>
<path d="M520.067 647.578L566.445 653.113C566.445 653.113 551.632 660.933 532.378 671.087L487.32 663.858C505.845 654.679 520.067 647.578 520.067 647.578Z" fill="#171717"/>
<path d="M520.067 647.578C520.067 647.578 505.845 654.678 487.32 663.858L450.869 658.017L483.41 643.199H483.419L520.067 647.578Z" fill="#171717"/>
<path d="M511.549 713.259L483.42 727.008L445.887 716.588C446.94 716.066 457.087 710.748 471.08 703.371L511.549 713.259Z" fill="#171717"/>
<path d="M501.444 687.387C490.659 693.07 480.072 698.645 471.08 703.372L428.336 692.932C437.003 688.717 447.136 683.732 457.449 678.652L501.444 687.387Z" fill="#171717"/>
<path d="M457.449 678.652C467.649 673.619 478.033 668.478 487.321 663.859L532.379 671.088C522.747 676.16 512.002 681.823 501.444 687.388L457.449 678.652Z" fill="#171717"/>
<path d="M452.505 639.504L483.411 643.197L450.87 658.019L418.625 652.849L452.495 639.504H452.505Z" fill="#171717"/>
<path d="M421.324 671.472L450.87 658.018L487.321 663.859C478.033 668.478 467.653 673.619 457.449 678.652L421.324 671.472Z" fill="#171717"/>
<path d="M450.87 658.018L421.324 671.472L388.104 664.873L418.625 652.848L450.87 658.018Z" fill="#171717"/>
<path d="M421.324 671.473L457.449 678.653C447.137 683.735 437.003 688.718 428.336 692.933L393.1 684.326L421.324 671.473Z" fill="#171717"/>
<path d="M421.207 635.77L452.501 639.5L418.631 652.845L385.756 647.576L416.937 636.259C418.302 635.763 419.765 635.596 421.207 635.77Z" fill="#171717"/>
<path d="M393.1 684.324L428.339 692.931C413.97 699.931 403.628 704.858 403.185 704.731L370.861 695.769L371.275 694.262L393.1 684.324Z" fill="#171717"/>
<path d="M359.531 676.12L388.103 664.873L421.323 671.472L393.096 684.325L359.531 676.12Z" fill="#171717"/>
<path d="M445.887 716.59L403.188 704.732C403.63 704.86 413.972 699.932 428.341 692.932L471.085 703.372C457.085 710.75 446.94 716.068 445.887 716.59Z" fill="#171717"/>
<path d="M240.608 413.788L295.121 412.064L315.656 411.414V432.274H403.182L401.015 595.3C400.914 602.87 403.671 610.2 408.734 615.828C413.798 621.456 420.797 624.968 428.336 625.664L751.751 655.464L751.682 656.193L414.351 625.419C410.243 625.042 406.102 625.549 402.207 626.906L275.64 671.006C274.65 671.344 273.741 671.884 272.971 672.592L272.961 672.582C266.175 674.945 268.982 702.699 275.827 704.882L396.534 743.361L396.524 743.401C396.524 743.401 395.579 746.257 393.846 750.925C391.895 756.194 388.941 763.768 385.228 772.12C376.236 792.379 362.792 817.237 348.328 825.057C322.6 838.971 82.751 808.38 63.989 650.573C45.227 492.766 228.75 432.273 228.75 432.273L227.381 414.2L240.608 413.788Z" fill="url(#paint1_linear_443_84)"/>
<path d="M393.097 684.324L371.272 694.261L370.858 695.768L334.969 685.801L359.532 676.119L393.097 684.324Z" fill="#171717"/>
<path d="M388.104 664.872L359.532 676.119L328.184 668.467L355.79 658.451L388.104 664.872Z" fill="#171717"/>
<path d="M355.789 658.451L385.749 647.578L418.624 652.847L388.103 664.872L355.789 658.451Z" fill="#171717"/>
<path d="M359.531 676.121L334.968 685.801L312.04 679.438C311.5 679.287 311.021 678.967 310.674 678.527C310.327 678.086 310.128 677.546 310.107 676.985C310.086 676.424 310.244 675.871 310.558 675.406C310.872 674.94 311.326 674.587 311.853 674.396L328.183 668.467L359.531 676.121Z" fill="#171717"/>
<path d="M328.184 275.44C322.458 277.875 316.558 279.876 310.534 281.428C293.772 285.791 276.399 287.17 259.124 288.528L258.73 288.637C255.607 304.568 250.895 320.146 244.666 335.137C240.882 344.265 236.434 353.103 231.36 361.581C229.93 346.364 231.42 331.013 235.752 316.355C232.742 323.467 228.362 329.916 222.86 335.334C221.698 336.486 219.906 337.639 218.576 336.703C217.576 336.014 217.522 334.595 217.562 333.394C218.122 316.69 218.677 299.987 219.226 283.283L219.778 282.554C244.941 276.32 263.309 258.326 282.357 240.746C293.423 230.534 304.447 220.281 315.429 209.988C315.754 223.698 308.545 236.324 301.562 248.133C315.144 239.702 328.722 231.271 342.297 222.841C340.274 235.342 335.316 247.186 327.829 257.399C334.222 251.968 341.633 247.863 349.629 245.325C352.811 244.32 356.858 243.798 358.976 246.388C361.596 249.609 358.818 254.336 355.876 257.271C347.88 265.028 338.483 271.194 328.184 275.44Z" fill="#171717"/>
<path d="M275.826 704.89C268.981 702.703 266.174 674.949 272.96 672.59L272.97 672.6C272.019 673.494 271.318 674.621 270.937 675.869C270.555 677.117 270.506 678.444 270.795 679.717C271.083 680.99 271.699 682.165 272.582 683.127C273.464 684.089 274.583 684.803 275.826 685.2L424.435 732.632L424.721 733.302C421.502 734.733 418.406 736.426 415.463 738.364C406.835 744.017 401.123 743.633 393.845 750.941C395.578 746.273 396.523 743.417 396.523 743.417L396.533 743.377L275.826 704.89Z" fill="#171717"/>
<path d="M259.299 380.6C254.414 378.187 252.592 371.815 253.774 366.506C254.956 361.197 258.442 356.727 261.958 352.57C262.73 357.467 265.371 361.873 269.325 364.862C269.532 365.009 269.739 365.167 269.946 365.305L269.394 365.975C263.426 368.575 260.087 375.045 262.106 381.24L262.057 381.486C261.099 381.331 260.169 381.032 259.299 380.6V380.6Z" fill="#171717"/>
<path d="M801.841 512.049L797.784 615.107C797.56 620.831 796.173 626.449 793.707 631.619C791.241 636.79 787.748 641.403 783.441 645.18C779.134 648.956 774.102 651.816 768.654 653.584C763.206 655.353 757.454 655.993 751.75 655.467L428.335 625.667C420.796 624.971 413.797 621.458 408.733 615.83C403.669 610.201 400.913 602.871 401.014 595.3L403.181 432.273L404.964 298.773C405.125 286.543 409.944 274.835 418.439 266.036C426.934 257.237 438.466 252.01 450.682 251.42L766.499 236.145C768.351 236.055 770.207 236.088 772.054 236.245C782.958 237.148 793.091 242.225 800.341 250.419C807.591 258.612 811.398 269.288 810.966 280.22L804.427 450.467" stroke="#171717" stroke-width="3" stroke-linecap="round" stroke-linejoin="round"/>
<path d="M770.691 508.937L767.854 593.666C767.725 597.532 766.804 601.33 765.15 604.827C763.496 608.324 761.142 611.444 758.235 613.996C755.328 616.548 751.929 618.477 748.247 619.665C744.566 620.852 740.68 621.272 736.83 620.9L454.888 601.053C447.193 600.308 440.06 596.696 434.905 590.934C429.751 585.172 426.952 577.683 427.066 569.953L436.55 314.308C436.679 305.542 440.179 297.162 446.325 290.91C452.47 284.658 460.788 281.013 469.55 280.733L743.869 272.033C748.329 271.889 752.771 272.662 756.919 274.305C761.068 275.948 764.835 278.424 767.988 281.582C771.141 284.74 773.612 288.511 775.248 292.663C776.884 296.814 777.651 301.257 777.5 305.717L772.6 452.257" stroke="#171717" stroke-width="3" stroke-linecap="round" stroke-linejoin="round"/>
<path d="M424.435 732.623L275.826 685.191C274.321 684.725 273.002 683.795 272.058 682.533C271.115 681.271 270.596 679.743 270.575 678.168C270.554 676.592 271.033 675.051 271.943 673.765C272.853 672.478 274.147 671.513 275.639 671.009L402.206 626.909C406.102 625.552 410.242 625.045 414.35 625.422L751.681 656.2L756.872 656.673L774.284 658.259C775.59 658.376 776.821 658.922 777.784 659.813C778.746 660.704 779.386 661.889 779.603 663.183C779.82 664.476 779.602 665.805 778.984 666.962C778.365 668.118 777.381 669.037 776.184 669.575L593.992 751.74C564.731 764.926 531.627 766.828 501.049 757.078L453.784 742.344" stroke="#171717" stroke-width="3" stroke-linecap="round" stroke-linejoin="round"/>
<path d="M396.524 743.407C396.524 743.407 395.579 746.263 393.846 750.931C391.895 756.2 388.941 763.774 385.228 772.126C376.236 792.385 362.792 817.243 348.328 825.063C322.6 838.97 82.751 808.379 63.989 650.572C45.227 492.765 228.75 432.272 228.75 432.272L227.381 414.199L240.608 413.786L295.121 412.062L315.656 411.412V432.272H403.182" stroke="#171717" stroke-width="3" stroke-linecap="round" stroke-linejoin="round"/>
<path d="M196.072 510.828C196.072 510.828 111.264 565.055 209.978 663.081" stroke="#171717" stroke-width="3" stroke-linecap="round" stroke-linejoin="round"/>
<path d="M818.585 512.049L816.793 557.649L814.528 615.107C813.582 639.266 792.828 658.59 768.75 656.374H756.9" stroke="#171717" stroke-width="3" stroke-linecap="round" stroke-linejoin="round"/>
<path d="M772.061 236.1L783.239 236.15C789.12 235.866 794.995 236.809 800.493 238.918C805.99 241.027 810.988 244.257 815.17 248.401C819.352 252.546 822.626 257.516 824.784 262.994C826.942 268.472 827.937 274.339 827.706 280.223L822.693 411.458L821.255 449.199" stroke="#171717" stroke-width="3" stroke-linecap="round" stroke-linejoin="round"/>
<path d="M400.227 744.551L396.533 743.369L275.826 704.89C268.981 702.703 266.174 674.949 272.96 672.59" stroke="#171717" stroke-width="3" stroke-linecap="round" stroke-linejoin="round"/>
<path d="M777.516 658.451C778.916 658.579 779.889 660.145 780.5 662.518C782.548 670.447 780.461 687.337 776.186 689.268L593.993 771.436C564.732 784.624 531.628 786.525 501.05 776.774L500.685 776.656L434.885 755.649" stroke="#171717" stroke-width="3" stroke-linecap="round" stroke-linejoin="round"/>
<path d="M393.846 750.932C401.124 743.624 406.836 744.008 415.464 738.355C418.406 736.417 421.502 734.724 424.722 733.293C430.925 730.439 437.695 729.032 444.522 729.176C448.481 729.334 453.022 730.584 454.558 734.238C455.658 736.878 454.745 740.01 452.992 742.275C451.094 744.424 448.838 746.227 446.324 747.603C442.374 750.065 438.422 752.524 434.466 754.98C430.332 757.55 426.193 760.124 422.047 762.701" stroke="#171717" stroke-width="3" stroke-linecap="round" stroke-linejoin="round"/>
<path d="M385.75 772.234C407.831 778.724 445.887 793.084 474.202 791.234C498.519 789.649 498.282 787.502 500.666 776.707" stroke="#171717" stroke-width="3" stroke-linecap="round" stroke-linejoin="round"/>
<path d="M258.73 288.639C255.607 304.57 250.895 320.148 244.666 335.139C240.882 344.267 236.434 353.105 231.36 361.583C229.93 346.366 231.42 331.015 235.752 316.357C232.742 323.469 228.362 329.918 222.86 335.336C221.698 336.488 219.906 337.641 218.576 336.705C217.576 336.016 217.522 334.597 217.562 333.396C218.122 316.692 218.677 299.988 219.226 283.285" stroke="#171717" stroke-width="3" stroke-linecap="round" stroke-linejoin="round"/>
<path d="M219.777 282.552C244.94 276.318 263.308 258.324 282.356 240.744C293.423 230.532 304.447 220.279 315.428 209.986C315.753 223.696 308.544 236.322 301.561 248.131C315.143 239.7 328.722 231.269 342.296 222.839C340.274 235.342 335.316 247.186 327.828 257.4C334.222 251.969 341.632 247.865 349.628 245.326C352.81 244.321 356.857 243.799 358.975 246.389C361.595 249.61 358.817 254.337 355.875 257.272C347.882 265.029 338.487 271.196 328.19 275.443C322.465 277.878 316.565 279.879 310.54 281.431C293.778 285.794 276.405 287.173 259.13 288.531" stroke="#171717" stroke-width="3" stroke-linecap="round" stroke-linejoin="round"/>
<path d="M328.184 275.4V275.439C328.174 294.281 328.164 313.114 328.154 331.939C328.154 344.496 327.386 358.767 317.754 366.823C313.066 370.733 306.782 372.623 302.744 377.194C294.737 386.245 299.13 400.644 295.121 412.039" stroke="#171717" stroke-width="3" stroke-linecap="round" stroke-linejoin="round"/>
<path d="M284.18 353.227C288.11 355.02 292.896 352.227 294.817 348.362C296.738 344.497 296.58 339.971 296.363 335.657C295.919 326.626 295.473 317.598 295.024 308.573C294.876 305.48 294.777 302.173 296.393 299.532C298.343 296.36 302.393 294.991 306.093 295.232C309.793 295.473 313.293 297.004 316.693 298.521" stroke="#171717" stroke-width="3" stroke-linecap="round" stroke-linejoin="round"/>
<path d="M307.777 323.129V313.852" stroke="#171717" stroke-width="3" stroke-linecap="round" stroke-linejoin="round"/>
<path d="M275.826 320.342C275.984 317.565 276.135 314.785 276.279 312" stroke="#171717" stroke-width="3" stroke-linecap="round" stroke-linejoin="round"/>
<path d="M283.201 368.462C278.545 369.063 273.829 367.939 269.945 365.301C269.738 365.163 269.531 365.001 269.324 364.858C265.369 361.869 262.728 357.463 261.957 352.566C258.441 356.723 254.957 361.194 253.773 366.502C252.589 371.81 254.413 378.183 259.298 380.596C260.168 381.028 261.097 381.327 262.056 381.482C266.456 382.211 271.274 380.082 275.283 377.71" stroke="#171717" stroke-width="3" stroke-linecap="round" stroke-linejoin="round"/>
<path d="M262.108 381.238C260.089 375.038 263.428 368.573 269.396 365.973" stroke="#171717" stroke-width="3" stroke-linecap="round" stroke-linejoin="round"/>
<path d="M244.754 335.174C243.366 361.382 241.984 387.586 240.608 413.788C240.608 413.847 240.598 413.906 240.598 413.965" stroke="#171717" stroke-width="3" stroke-linecap="round" stroke-linejoin="round"/>
<path d="M811.4 491.958C794.962 491.758 779.214 491.198 761.053 490.381C757.921 490.243 753.981 488.767 751.322 490.441C748.663 492.115 747.835 496.141 748.545 499.196C749.49 503.244 754.208 504.947 758.255 505.873C762.205 506.773 766.43 507.558 770.793 508.238C781.09 509.799 791.468 510.766 801.876 511.132C804.85 511.241 807.756 511.29 810.543 511.29C812.66 511.28 814.797 511.242 816.925 511.114C823.325 510.729 829.659 509.556 835.086 506.257C843.625 501.047 848.52 491.157 849.78 481.231C851.04 471.305 849.101 461.249 846.599 451.558C845.23 446.298 843.699 441.068 841.98 435.907C840.434 431.209 838.743 426.558 836.908 421.952C835.708 418.919 834.377 415.826 832.023 413.571C829.669 411.316 826.015 410.084 823.061 411.463" stroke="#171717" stroke-width="3" stroke-linecap="round" stroke-linejoin="round"/>
<path d="M811.4 491.957C813.714 492.035 815.96 492.065 818.126 492.026C815.857 492.016 813.621 491.986 811.4 491.957Z" stroke="#171717" stroke-width="3" stroke-linecap="round" stroke-linejoin="round"/>
<path d="M782.045 470.725C771.802 470.734 761.658 471.01 752.617 471.867C750.064 472.073 747.629 473.029 745.617 474.615C743.658 476.23 742.525 479.126 743.677 481.381C744.987 483.951 748.385 484.316 751.241 484.71C771.313 487.458 793.374 491.348 811.398 491.959" stroke="#171717" stroke-width="3" stroke-linecap="round" stroke-linejoin="round"/>
<path d="M782.047 470.725C795.496 471.648 808.984 471.885 822.457 471.434C810.54 471.227 796.19 470.715 782.047 470.725Z" stroke="#171717" stroke-width="3" stroke-linecap="round" stroke-linejoin="round"/>
<path d="M824.316 449.883C823.341 450.021 822.376 450.159 821.416 450.283C815.782 451.051 810.198 451.623 804.555 452.056C794.371 452.844 783.971 453.189 772.625 453.425C771.197 453.445 769.749 453.474 768.282 453.504C765.829 453.553 756.463 454.242 754.375 455.533C753.318 456.144 752.458 457.044 751.894 458.128C751.331 459.211 751.088 460.432 751.194 461.649C751.933 466.908 766.066 469.518 782.05 470.72" stroke="#171717" stroke-width="3" stroke-linecap="round" stroke-linejoin="round"/>
<path d="M842.3 435.801C855.389 440.154 867.759 447.363 876.7 457.862C885.641 468.361 890.882 482.356 889.326 496.062C888.154 506.304 883.338 515.867 877.084 524.081C869.927 533.386 860.971 541.156 850.749 546.929C840.527 552.701 829.248 556.358 817.584 557.681" stroke="#171717" stroke-width="3" stroke-linecap="round" stroke-linejoin="round"/>
<path d="M305.365 432.039L305.738 419.523" stroke="#171717" stroke-width="3" stroke-linecap="round" stroke-linejoin="round"/>
<path d="M284.6 432.504V419.527" stroke="#171717" stroke-width="3" stroke-linecap="round" stroke-linejoin="round"/>
<path d="M262.353 434.359C263.122 430.205 262.964 425.931 261.889 421.846" stroke="#171717" stroke-width="3" stroke-linecap="round" stroke-linejoin="round"/>
<path d="M242.9 435.287L242.434 422.309" stroke="#171717" stroke-width="3" stroke-linecap="round" stroke-linejoin="round"/>
<path d="M365.15 483.906L375.55 470.328" stroke="#171717" stroke-width="3" stroke-linecap="round" stroke-linejoin="round"/>
<path d="M333 523.723L321.52 509.131" stroke="#171717" stroke-width="3" stroke-linecap="round" stroke-linejoin="round"/>
<path d="M316.346 475.725C318.709 471.545 322.37 468.25 326.775 466.34" stroke="#171717" stroke-width="3" stroke-linecap="round" stroke-linejoin="round"/>
<path d="M271.98 413.174C274.745 495.453 292.825 576.496 325.292 652.149" stroke="#171717" stroke-width="3" stroke-linecap="round" stroke-linejoin="round"/>
<path d="M366.135 566.229L353.369 581.663" stroke="#171717" stroke-width="3" stroke-linecap="round" stroke-linejoin="round"/>
<path d="M343.46 622.762L334.074 614.42" stroke="#171717" stroke-width="3" stroke-linecap="round" stroke-linejoin="round"/>
<path d="M245.436 513.267L235.008 508.053" stroke="#171717" stroke-width="3" stroke-linecap="round" stroke-linejoin="round"/>
<path d="M203.656 479.852L210.712 469.262" stroke="#171717" stroke-width="3" stroke-linecap="round" stroke-linejoin="round"/>
<path d="M237.057 612.367L222.473 596.711" stroke="#171717" stroke-width="3" stroke-linecap="round" stroke-linejoin="round"/>
<path d="M254.82 582.09L265.249 571.662" stroke="#171717" stroke-width="3" stroke-linecap="round" stroke-linejoin="round"/>
<path d="M281.84 657.321L270.395 649.982" stroke="#171717" stroke-width="3" stroke-linecap="round" stroke-linejoin="round"/>
<path d="M312.113 765.532L323.478 758.072" stroke="#171717" stroke-width="3" stroke-linecap="round" stroke-linejoin="round"/>
<path d="M251.5 799.108L243.164 784.508" stroke="#171717" stroke-width="3" stroke-linecap="round" stroke-linejoin="round"/>
<path d="M205.809 734.342L219.521 727.278L219.412 724.955" stroke="#171717" stroke-width="3" stroke-linecap="round" stroke-linejoin="round"/>
<path d="M151.581 738.514L145.324 722.871" stroke="#171717" stroke-width="3" stroke-linecap="round" stroke-linejoin="round"/>
<path d="M163.053 675.944L173.481 670.73" stroke="#171717" stroke-width="3" stroke-linecap="round" stroke-linejoin="round"/>
<path d="M111.955 653L101.527 644.66" stroke="#171717" stroke-width="3" stroke-linecap="round" stroke-linejoin="round"/>
<path d="M123.244 598.576L135.808 587.16" stroke="#171717" stroke-width="3" stroke-linecap="round" stroke-linejoin="round"/>
<path d="M121.354 551.838L111.967 541.412" stroke="#171717" stroke-width="3" stroke-linecap="round" stroke-linejoin="round"/>
<path d="M148.453 517.438L159.924 507.01" stroke="#171717" stroke-width="3" stroke-linecap="round" stroke-linejoin="round"/>
<path d="M835.667 542.813L834.277 530.299" stroke="#171717" stroke-width="3" stroke-linecap="round" stroke-linejoin="round"/>
<path d="M863.477 498.318L874.6 494.146" stroke="#171717" stroke-width="3" stroke-linecap="round" stroke-linejoin="round"/>
<path d="M317.078 827.424C343.695 802.969 362.805 771.448 372.178 736.539" stroke="#171717" stroke-width="3" stroke-linecap="round" stroke-linejoin="round"/>
<path d="M860.033 456.213C862.781 458.16 864.973 460.789 866.395 463.842" stroke="#171717" stroke-width="3" stroke-linecap="round" stroke-linejoin="round"/>
<path d="M386.199 214.999L412.381 198.49" stroke="#171717" stroke-width="3" stroke-linecap="round" stroke-linejoin="round"/>
<path d="M369.023 205.838C378.25 181.362 388.124 157.145 398.644 133.186" stroke="#171717" stroke-width="3" stroke-linecap="round" stroke-linejoin="round"/>
<path d="M352.845 194.165L349.717 164.965" stroke="#171717" stroke-width="3" stroke-linecap="round" stroke-linejoin="round"/>
<path d="M440.441 229.148L450.882 226.828" stroke="#171717" stroke-width="3" stroke-linecap="round" stroke-linejoin="round"/>
<path d="M446.134 233.817L442.607 221.068" stroke="#171717" stroke-width="3" stroke-linecap="round" stroke-linejoin="round"/>
<path d="M467.124 152.942L454 150.615" stroke="#171717" stroke-width="3" stroke-linecap="round" stroke-linejoin="round"/>
<path d="M458.979 159.537L461.298 145.615" stroke="#171717" stroke-width="3" stroke-linecap="round" stroke-linejoin="round"/>
<path d="M40.2208 627.967C39.4678 696.115 74.8208 763.634 131.26 801.837" stroke="#171717" stroke-width="3" stroke-linecap="round" stroke-linejoin="round"/>
<path d="M284.74 201.683L275.84 194.455" stroke="#171717" stroke-width="3" stroke-linecap="round" stroke-linejoin="round"/>
<path d="M275.287 203.907L283.587 192.207" stroke="#171717" stroke-width="3" stroke-linecap="round" stroke-linejoin="round"/>
<path d="M184.759 340.535L167.406 327.521" stroke="#171717" stroke-width="3" stroke-linecap="round" stroke-linejoin="round"/>
<path d="M169.4 345.63L182.76 322.43" stroke="#171717" stroke-width="3" stroke-linecap="round" stroke-linejoin="round"/>
<path d="M219.711 202.2L209.162 195.5" stroke="#171717" stroke-width="3" stroke-linecap="round" stroke-linejoin="round"/>
<path d="M208.719 207.325L219.233 187.281" stroke="#171717" stroke-width="3" stroke-linecap="round" stroke-linejoin="round"/>
<path d="M91.8343 382.549C97.8583 382.392 103.773 384.177 108.704 387.641C113.635 391.105 117.321 396.063 119.218 401.782C121.114 407.502 121.121 413.68 119.236 419.404C117.351 425.128 113.674 430.093 108.75 433.567C103.371 437.361 95.8583 439.075 90.2133 435.689C84.5683 432.303 83.2133 422.718 88.8483 419.31C92.3403 417.196 97.1363 418.202 100.148 420.962C103.16 423.722 104.575 427.868 104.896 431.937C105.199 436.468 104.31 441.001 102.318 445.082C100.325 449.164 97.2981 452.652 93.5383 455.201C83.4753 461.85 70.0473 460.669 59.1693 465.879C54.8106 467.966 50.9895 471.027 48.0006 474.825C45.0117 478.623 42.9348 483.057 41.93 487.784C40.9252 492.511 41.0193 497.406 42.2051 502.092C43.3909 506.777 45.6366 511.127 48.7693 514.808" stroke="#171717" stroke-width="3" stroke-linecap="round" stroke-linejoin="round"/>
<path d="M875.412 330.9C862.565 345.839 861.282 369.54 872.441 385.778C875.622 390.407 879.864 394.55 885.182 396.358C890.5 398.166 896.995 397.188 900.714 392.979C904.433 388.77 904.149 381.265 899.469 378.16C893.03 373.887 883.84 380.896 883.498 388.615C883.156 396.334 888.56 403.104 894.398 408.16C904.632 417.014 918.213 424.87 920.033 438.28C920.545 442.847 919.567 447.456 917.245 451.421C914.923 455.386 911.38 458.494 907.147 460.28" stroke="#171717" stroke-width="3" stroke-linecap="round" stroke-linejoin="round"/>
<path d="M55.9489 442.354L44.2129 434.705" stroke="#171717" stroke-width="3" stroke-linecap="round" stroke-linejoin="round"/>
<path d="M45.9102 444.092L54.2522 432.969" stroke="#171717" stroke-width="3" stroke-linecap="round" stroke-linejoin="round"/>
<path d="M262.65 154.575L268.99 159.944C269.181 160.107 269.318 160.323 269.382 160.566C269.447 160.808 269.435 161.064 269.35 161.3C269.264 161.535 269.108 161.739 268.904 161.883C268.699 162.028 268.454 162.106 268.204 162.107L259.895 162.15C259.652 162.152 259.416 162.225 259.215 162.36C259.014 162.496 258.858 162.688 258.766 162.912L255.619 170.601C255.524 170.833 255.36 171.031 255.149 171.167C254.939 171.303 254.692 171.371 254.441 171.362C254.191 171.354 253.949 171.269 253.748 171.119C253.548 170.968 253.398 170.76 253.319 170.522L250.712 162.633C250.636 162.403 250.493 162.201 250.302 162.052C250.111 161.902 249.88 161.813 249.638 161.795L241.352 161.177C241.102 161.159 240.864 161.064 240.669 160.906C240.475 160.747 240.334 160.533 240.264 160.292C240.195 160.052 240.202 159.795 240.282 159.558C240.363 159.321 240.515 159.114 240.717 158.965L247.417 154.047C247.612 153.904 247.761 153.706 247.844 153.478C247.927 153.25 247.94 153.003 247.883 152.767L245.909 144.696C245.849 144.453 245.866 144.197 245.956 143.963C246.046 143.729 246.206 143.528 246.414 143.388C246.622 143.247 246.868 143.174 247.119 143.178C247.37 143.182 247.613 143.262 247.817 143.408L254.564 148.258C254.761 148.4 254.995 148.48 255.237 148.488C255.479 148.497 255.719 148.433 255.925 148.305L262.991 143.934C263.204 143.803 263.452 143.739 263.703 143.753C263.953 143.767 264.193 143.857 264.391 144.011C264.588 144.165 264.734 144.376 264.808 144.616C264.882 144.855 264.881 145.112 264.805 145.35L262.278 153.265C262.204 153.496 262.199 153.744 262.266 153.977C262.332 154.21 262.465 154.418 262.65 154.575Z" fill="#171717"/>
<g opacity="0.1">
<path d="M321.96 275.812C317.728 275.812 313.997 278.676 309.977 279.822C305.32 281.051 300.565 281.872 295.765 282.275C286.534 283.224 277.2 283.366 268.435 286.775C259.848 290.12 253.135 295.696 248.919 303.967C246.96 307.813 245.519 311.903 243.532 315.734C241.649 319.359 238.565 322.074 236.973 325.802C235.214 329.919 237.178 335.051 242.273 335.042C252.265 335.025 256.383 324.532 259.702 316.685C263.137 308.565 267.025 302.508 275.661 299.379C284.413 296.208 293.713 295.595 302.791 293.934C310.105 292.595 323.723 289.292 325.814 280.87C325.968 280.276 325.986 279.656 325.865 279.055C325.744 278.454 325.488 277.888 325.117 277.401C324.746 276.913 324.268 276.516 323.721 276.24C323.174 275.964 322.571 275.816 321.958 275.807L321.96 275.812Z" fill="#171717"/>
</g>
<g opacity="0.1">
<path d="M229.241 419.416C229.165 431.171 218.541 437.106 209.141 441.487C199.766 445.855 190.241 449.67 181.141 454.633C162.802 464.633 145.767 476.207 130.558 490.587C99.1993 520.234 74.7993 560.3 66.5383 602.9C62.4286 623.59 62.643 644.905 67.1681 665.508C71.6931 686.11 80.4309 705.554 92.8323 722.616C117.065 756.284 150.886 780.575 188.865 796.589C237.546 817.115 290.755 824.984 343.118 828.989C353.526 829.789 356.078 812.303 345.61 810.574C300.895 803.19 255.51 797.828 212.564 782.604C175.789 769.565 141.937 748.436 116.964 718.125C92.7793 688.766 80.5923 650.992 86.7893 613.09C93.5293 571.867 115.689 534.254 144.573 504.607C159.78 489 176.899 475 196.035 464.517C206.2 458.949 217.864 455.194 226.856 447.743C235.419 440.643 241.277 429.343 238.173 418.207C236.796 413.27 229.273 414.254 229.241 419.416V419.416Z" fill="#171717"/>
</g>
<path d="M577.991 406.253C574.06 406.126 571.378 406.447 569.978 406.817L569.115 433.638C570.757 434.087 572.772 434.284 575.564 434.374C585.855 434.705 592.383 429.387 592.682 420.078C592.942 411.733 587.641 406.563 577.991 406.253Z" fill="#171717"/>
<path d="M675.316 359.683L534.913 360.305C529.657 360.136 525.251 364.511 525.072 370.072L520.42 511.784C520.241 517.354 524.356 522.013 529.613 522.182L670.015 529.56C675.263 529.728 679.668 525.343 679.847 519.774L684.499 370.071C684.678 364.501 680.563 359.851 675.316 359.683ZM601.885 440.937C595.082 447.334 585.194 449.983 573.783 449.616C571.23 449.534 568.957 449.329 567.187 448.998L566.143 481.492L546.958 480.875L549.84 391.229C555.842 390.354 564.247 389.811 576.067 390.191C587.994 390.575 596.437 393.265 601.982 398.311C607.322 403.075 610.753 410.745 610.467 419.638C610.181 428.531 607.137 435.965 601.885 440.937ZM629.417 484.868C621.27 484.606 614.099 482.504 609.482 479.644L613.378 465.064C616.863 467.454 624.149 470.391 629.877 470.575C635.703 470.762 638.191 468.688 638.3 465.308C638.408 461.947 636.556 460.272 629.408 457.472C616.73 452.481 612.005 444.901 612.381 437.088C612.775 424.835 622.983 415.826 638.352 416.32C645.592 416.553 652.01 418.526 655.752 420.66L651.873 434.71C649.132 432.997 643.874 430.682 638.528 430.51C633.841 430.36 631.117 432.295 631.008 435.665C630.909 438.761 633.249 440.452 640.78 443.539C652.453 448.224 657.212 454.727 657.017 464.417C656.622 476.699 647.17 485.439 629.417 484.868Z" fill="#171717"/>
</g>
<defs>
<linearGradient id="paint0_linear_443_84" x1="853.196" y1="435.801" x2="853.196" y2="557.681" gradientUnits="userSpaceOnUse">
<stop stop-color="#4A9FFF"/>
<stop offset="1" stop-color="#2A67F7"/>
</linearGradient>
<linearGradient id="paint1_linear_443_84" x1="407.197" y1="411.414" x2="407.197" y2="828.057" gradientUnits="userSpaceOnUse">
<stop stop-color="#4A9FFF"/>
<stop offset="1" stop-color="#2A67F7"/>
</linearGradient>
<clipPath id="clip0_443_84">
<rect width="884" height="699" fill="white" transform="translate(38 131)"/>
</clipPath>
</defs>
</svg>
